<mxfile host="app.diagrams.net" modified="2022-07-27T09:11:24.106Z" agent="5.0 (Windows)" etag="NhEJYgACHm6B9hIKknrk" version="20.2.1" type="github">
  <diagram id="mtd2JBwrptf4_RDQNIB4" name="Page-1">
    <mxGraphModel dx="1574" dy="796" grid="1" gridSize="10" guides="1" tooltips="1" connect="1" arrows="1" fold="1" page="1" pageScale="1" pageWidth="827" pageHeight="1169" background="none" math="0" shadow="0">
      <root>
        <mxCell id="0" />
        <mxCell id="1" parent="0" />
        <mxCell id="9X0BEVMstnNwjNBZbNRU-2" value="FlowChart" style="swimlane;childLayout=stackLayout;resizeParent=1;resizeParentMax=0;startSize=20;" parent="1" vertex="1">
          <mxGeometry width="820" height="1480" as="geometry" />
        </mxCell>
        <mxCell id="9X0BEVMstnNwjNBZbNRU-3" value="Accounting" style="swimlane;startSize=20;" parent="9X0BEVMstnNwjNBZbNRU-2" vertex="1">
          <mxGeometry y="20" width="200" height="1460" as="geometry" />
        </mxCell>
        <mxCell id="sg5ZIZvMc2TJiHGULIQv-5" value="" style="edgeStyle=orthogonalEdgeStyle;rounded=0;orthogonalLoop=1;jettySize=auto;html=1;" edge="1" parent="9X0BEVMstnNwjNBZbNRU-3" source="sg5ZIZvMc2TJiHGULIQv-3" target="sg5ZIZvMc2TJiHGULIQv-4">
          <mxGeometry relative="1" as="geometry" />
        </mxCell>
        <mxCell id="sg5ZIZvMc2TJiHGULIQv-3" value="" style="strokeWidth=2;html=1;shape=mxgraph.flowchart.start_2;whiteSpace=wrap;" vertex="1" parent="9X0BEVMstnNwjNBZbNRU-3">
          <mxGeometry x="90" y="30" width="20" height="20" as="geometry" />
        </mxCell>
        <mxCell id="sg5ZIZvMc2TJiHGULIQv-14" value="" style="edgeStyle=orthogonalEdgeStyle;rounded=0;orthogonalLoop=1;jettySize=auto;html=1;" edge="1" parent="9X0BEVMstnNwjNBZbNRU-3" source="sg5ZIZvMc2TJiHGULIQv-4" target="sg5ZIZvMc2TJiHGULIQv-13">
          <mxGeometry relative="1" as="geometry" />
        </mxCell>
        <mxCell id="sg5ZIZvMc2TJiHGULIQv-4" value="Input Section Department" style="whiteSpace=wrap;html=1;strokeWidth=2;" vertex="1" parent="9X0BEVMstnNwjNBZbNRU-3">
          <mxGeometry x="40" y="80" width="120" height="60" as="geometry" />
        </mxCell>
        <mxCell id="sg5ZIZvMc2TJiHGULIQv-13" value="Register User PIC Department" style="whiteSpace=wrap;html=1;strokeWidth=2;" vertex="1" parent="9X0BEVMstnNwjNBZbNRU-3">
          <mxGeometry x="40" y="180" width="120" height="60" as="geometry" />
        </mxCell>
        <mxCell id="sg5ZIZvMc2TJiHGULIQv-71" value="Can see Grafik Gantt Chart, Pie and Bar Progress Project" style="whiteSpace=wrap;html=1;strokeWidth=2;" vertex="1" parent="9X0BEVMstnNwjNBZbNRU-3">
          <mxGeometry x="40" y="1281" width="120" height="60" as="geometry" />
        </mxCell>
        <mxCell id="9X0BEVMstnNwjNBZbNRU-4" value="PIC Leader (ACC)" style="swimlane;startSize=20;" parent="9X0BEVMstnNwjNBZbNRU-2" vertex="1">
          <mxGeometry x="200" y="20" width="200" height="1460" as="geometry" />
        </mxCell>
        <mxCell id="sg5ZIZvMc2TJiHGULIQv-15" value="Buat Project + Detail Jobs For PIC Department" style="whiteSpace=wrap;html=1;strokeWidth=2;" vertex="1" parent="9X0BEVMstnNwjNBZbNRU-4">
          <mxGeometry x="40" y="180" width="120" height="60" as="geometry" />
        </mxCell>
        <mxCell id="sg5ZIZvMc2TJiHGULIQv-22" value="Monitoring Planning Schedule Project" style="whiteSpace=wrap;html=1;strokeWidth=2;" vertex="1" parent="9X0BEVMstnNwjNBZbNRU-4">
          <mxGeometry x="40" y="280" width="120" height="60" as="geometry" />
        </mxCell>
        <mxCell id="sg5ZIZvMc2TJiHGULIQv-69" value="Can see Grafik Gantt Chart, Pie and Bar Progress Project" style="whiteSpace=wrap;html=1;strokeWidth=2;" vertex="1" parent="9X0BEVMstnNwjNBZbNRU-4">
          <mxGeometry x="40" y="1281" width="120" height="60" as="geometry" />
        </mxCell>
        <mxCell id="9X0BEVMstnNwjNBZbNRU-5" value="PIC Job (ACC)" style="swimlane;startSize=20;" parent="9X0BEVMstnNwjNBZbNRU-2" vertex="1">
          <mxGeometry x="400" y="20" width="200" height="1460" as="geometry" />
        </mxCell>
        <mxCell id="sg5ZIZvMc2TJiHGULIQv-29" value="Y" style="edgeStyle=orthogonalEdgeStyle;rounded=0;orthogonalLoop=1;jettySize=auto;html=1;" edge="1" parent="9X0BEVMstnNwjNBZbNRU-5" source="sg5ZIZvMc2TJiHGULIQv-26" target="sg5ZIZvMc2TJiHGULIQv-28">
          <mxGeometry relative="1" as="geometry" />
        </mxCell>
        <mxCell id="sg5ZIZvMc2TJiHGULIQv-26" value="IF Start Job?" style="rhombus;whiteSpace=wrap;html=1;strokeWidth=2;" vertex="1" parent="9X0BEVMstnNwjNBZbNRU-5">
          <mxGeometry x="30" y="320" width="140" height="90" as="geometry" />
        </mxCell>
        <mxCell id="sg5ZIZvMc2TJiHGULIQv-28" value="Klik Start in Detail Job" style="whiteSpace=wrap;html=1;strokeWidth=2;" vertex="1" parent="9X0BEVMstnNwjNBZbNRU-5">
          <mxGeometry x="40" y="460" width="120" height="60" as="geometry" />
        </mxCell>
        <mxCell id="sg5ZIZvMc2TJiHGULIQv-33" value="" style="edgeStyle=orthogonalEdgeStyle;rounded=0;orthogonalLoop=1;jettySize=auto;html=1;" edge="1" parent="9X0BEVMstnNwjNBZbNRU-5" source="sg5ZIZvMc2TJiHGULIQv-30" target="sg5ZIZvMc2TJiHGULIQv-32">
          <mxGeometry relative="1" as="geometry" />
        </mxCell>
        <mxCell id="sg5ZIZvMc2TJiHGULIQv-37" value="&lt;div&gt;Y&lt;/div&gt;" style="edgeLabel;html=1;align=center;verticalAlign=middle;resizable=0;points=[];" vertex="1" connectable="0" parent="sg5ZIZvMc2TJiHGULIQv-33">
          <mxGeometry x="-0.26" y="1" relative="1" as="geometry">
            <mxPoint x="-2" as="offset" />
          </mxGeometry>
        </mxCell>
        <mxCell id="sg5ZIZvMc2TJiHGULIQv-30" value="IF Update Progress?" style="rhombus;whiteSpace=wrap;html=1;strokeWidth=2;" vertex="1" parent="9X0BEVMstnNwjNBZbNRU-5">
          <mxGeometry x="30" y="541" width="140" height="80" as="geometry" />
        </mxCell>
        <mxCell id="sg5ZIZvMc2TJiHGULIQv-32" value="Klik Button Progress" style="whiteSpace=wrap;html=1;strokeWidth=2;" vertex="1" parent="9X0BEVMstnNwjNBZbNRU-5">
          <mxGeometry x="40" y="673" width="120" height="60" as="geometry" />
        </mxCell>
        <mxCell id="sg5ZIZvMc2TJiHGULIQv-47" value="Y" style="edgeStyle=orthogonalEdgeStyle;rounded=0;orthogonalLoop=1;jettySize=auto;html=1;" edge="1" parent="9X0BEVMstnNwjNBZbNRU-5" source="sg5ZIZvMc2TJiHGULIQv-44" target="sg5ZIZvMc2TJiHGULIQv-46">
          <mxGeometry relative="1" as="geometry" />
        </mxCell>
        <mxCell id="sg5ZIZvMc2TJiHGULIQv-44" value="IF Change Planning?" style="rhombus;whiteSpace=wrap;html=1;strokeWidth=2;" vertex="1" parent="9X0BEVMstnNwjNBZbNRU-5">
          <mxGeometry x="30" y="753" width="140" height="80" as="geometry" />
        </mxCell>
        <mxCell id="sg5ZIZvMc2TJiHGULIQv-61" value="" style="edgeStyle=orthogonalEdgeStyle;rounded=0;orthogonalLoop=1;jettySize=auto;html=1;" edge="1" parent="9X0BEVMstnNwjNBZbNRU-5" source="sg5ZIZvMc2TJiHGULIQv-46" target="sg5ZIZvMc2TJiHGULIQv-60">
          <mxGeometry relative="1" as="geometry" />
        </mxCell>
        <mxCell id="sg5ZIZvMc2TJiHGULIQv-46" value="Klik Button Planning" style="whiteSpace=wrap;html=1;strokeWidth=2;" vertex="1" parent="9X0BEVMstnNwjNBZbNRU-5">
          <mxGeometry x="40" y="879" width="120" height="60" as="geometry" />
        </mxCell>
        <mxCell id="sg5ZIZvMc2TJiHGULIQv-48" value="Select Data Finish Jobs and Import File Evidence" style="whiteSpace=wrap;html=1;strokeWidth=2;" vertex="1" parent="9X0BEVMstnNwjNBZbNRU-5">
          <mxGeometry x="40" y="1197" width="120" height="60" as="geometry" />
        </mxCell>
        <mxCell id="sg5ZIZvMc2TJiHGULIQv-60" value="Select Data Change Planning" style="whiteSpace=wrap;html=1;strokeWidth=2;" vertex="1" parent="9X0BEVMstnNwjNBZbNRU-5">
          <mxGeometry x="40" y="980" width="120" height="60" as="geometry" />
        </mxCell>
        <mxCell id="sg5ZIZvMc2TJiHGULIQv-10" value="System" style="swimlane;startSize=20;" vertex="1" parent="9X0BEVMstnNwjNBZbNRU-2">
          <mxGeometry x="600" y="20" width="220" height="1460" as="geometry" />
        </mxCell>
        <mxCell id="sg5ZIZvMc2TJiHGULIQv-35" style="edgeStyle=orthogonalEdgeStyle;rounded=0;orthogonalLoop=1;jettySize=auto;html=1;exitX=0.5;exitY=1;exitDx=0;exitDy=0;entryX=0.5;entryY=0;entryDx=0;entryDy=0;" edge="1" parent="sg5ZIZvMc2TJiHGULIQv-10" source="sg5ZIZvMc2TJiHGULIQv-20" target="sg5ZIZvMc2TJiHGULIQv-34">
          <mxGeometry relative="1" as="geometry" />
        </mxCell>
        <mxCell id="sg5ZIZvMc2TJiHGULIQv-20" value="&lt;div&gt;Auto Create Schedule Planning&lt;/div&gt;" style="whiteSpace=wrap;html=1;strokeWidth=2;" vertex="1" parent="sg5ZIZvMc2TJiHGULIQv-10">
          <mxGeometry x="50" y="180" width="120" height="60" as="geometry" />
        </mxCell>
        <mxCell id="sg5ZIZvMc2TJiHGULIQv-34" value="DB" style="shape=datastore;whiteSpace=wrap;html=1;" vertex="1" parent="sg5ZIZvMc2TJiHGULIQv-10">
          <mxGeometry x="80" y="280" width="60" height="60" as="geometry" />
        </mxCell>
        <mxCell id="sg5ZIZvMc2TJiHGULIQv-55" style="edgeStyle=orthogonalEdgeStyle;rounded=0;orthogonalLoop=1;jettySize=auto;html=1;exitX=0.5;exitY=1;exitDx=0;exitDy=0;entryX=0.5;entryY=0;entryDx=0;entryDy=0;" edge="1" parent="sg5ZIZvMc2TJiHGULIQv-10" source="sg5ZIZvMc2TJiHGULIQv-39" target="sg5ZIZvMc2TJiHGULIQv-54">
          <mxGeometry relative="1" as="geometry" />
        </mxCell>
        <mxCell id="sg5ZIZvMc2TJiHGULIQv-39" value="Update Actual Start" style="whiteSpace=wrap;html=1;strokeWidth=2;" vertex="1" parent="sg5ZIZvMc2TJiHGULIQv-10">
          <mxGeometry x="50" y="460" width="120" height="60" as="geometry" />
        </mxCell>
        <mxCell id="sg5ZIZvMc2TJiHGULIQv-58" style="edgeStyle=orthogonalEdgeStyle;rounded=0;orthogonalLoop=1;jettySize=auto;html=1;exitX=0.5;exitY=1;exitDx=0;exitDy=0;" edge="1" parent="sg5ZIZvMc2TJiHGULIQv-10" source="sg5ZIZvMc2TJiHGULIQv-42" target="sg5ZIZvMc2TJiHGULIQv-57">
          <mxGeometry relative="1" as="geometry" />
        </mxCell>
        <mxCell id="sg5ZIZvMc2TJiHGULIQv-42" value="Update Progress Persentase" style="whiteSpace=wrap;html=1;strokeWidth=2;" vertex="1" parent="sg5ZIZvMc2TJiHGULIQv-10">
          <mxGeometry x="50" y="673" width="120" height="60" as="geometry" />
        </mxCell>
        <mxCell id="sg5ZIZvMc2TJiHGULIQv-53" style="edgeStyle=orthogonalEdgeStyle;rounded=0;orthogonalLoop=1;jettySize=auto;html=1;exitX=0.5;exitY=1;exitDx=0;exitDy=0;entryX=0.5;entryY=0;entryDx=0;entryDy=0;" edge="1" parent="sg5ZIZvMc2TJiHGULIQv-10" source="sg5ZIZvMc2TJiHGULIQv-50" target="sg5ZIZvMc2TJiHGULIQv-52">
          <mxGeometry relative="1" as="geometry" />
        </mxCell>
        <mxCell id="sg5ZIZvMc2TJiHGULIQv-50" value="Update Actual Finish, Calculate Actual Day Work and Save File Evidence to Server" style="whiteSpace=wrap;html=1;strokeWidth=2;" vertex="1" parent="sg5ZIZvMc2TJiHGULIQv-10">
          <mxGeometry x="50" y="1197" width="120" height="60" as="geometry" />
        </mxCell>
        <mxCell id="sg5ZIZvMc2TJiHGULIQv-73" value="" style="edgeStyle=orthogonalEdgeStyle;rounded=0;orthogonalLoop=1;jettySize=auto;html=1;" edge="1" parent="sg5ZIZvMc2TJiHGULIQv-10" source="sg5ZIZvMc2TJiHGULIQv-52">
          <mxGeometry relative="1" as="geometry">
            <mxPoint x="110" y="1410" as="targetPoint" />
          </mxGeometry>
        </mxCell>
        <mxCell id="sg5ZIZvMc2TJiHGULIQv-52" value="DB" style="shape=datastore;whiteSpace=wrap;html=1;" vertex="1" parent="sg5ZIZvMc2TJiHGULIQv-10">
          <mxGeometry x="80" y="1287" width="60" height="60" as="geometry" />
        </mxCell>
        <mxCell id="sg5ZIZvMc2TJiHGULIQv-54" value="DB" style="shape=datastore;whiteSpace=wrap;html=1;" vertex="1" parent="sg5ZIZvMc2TJiHGULIQv-10">
          <mxGeometry x="80" y="551" width="60" height="60" as="geometry" />
        </mxCell>
        <mxCell id="sg5ZIZvMc2TJiHGULIQv-57" value="DB" style="shape=datastore;whiteSpace=wrap;html=1;" vertex="1" parent="sg5ZIZvMc2TJiHGULIQv-10">
          <mxGeometry x="80" y="763" width="60" height="60" as="geometry" />
        </mxCell>
        <mxCell id="sg5ZIZvMc2TJiHGULIQv-66" style="edgeStyle=orthogonalEdgeStyle;rounded=0;orthogonalLoop=1;jettySize=auto;html=1;exitX=0.5;exitY=1;exitDx=0;exitDy=0;entryX=0.5;entryY=0;entryDx=0;entryDy=0;" edge="1" parent="sg5ZIZvMc2TJiHGULIQv-10" source="sg5ZIZvMc2TJiHGULIQv-62" target="sg5ZIZvMc2TJiHGULIQv-65">
          <mxGeometry relative="1" as="geometry" />
        </mxCell>
        <mxCell id="sg5ZIZvMc2TJiHGULIQv-62" value="Auto Calculate Date and Update Planning All of Jobs" style="whiteSpace=wrap;html=1;strokeWidth=2;" vertex="1" parent="sg5ZIZvMc2TJiHGULIQv-10">
          <mxGeometry x="50" y="980" width="120" height="60" as="geometry" />
        </mxCell>
        <mxCell id="sg5ZIZvMc2TJiHGULIQv-64" value="IF Finish Job?" style="rhombus;whiteSpace=wrap;html=1;strokeWidth=2;" vertex="1" parent="sg5ZIZvMc2TJiHGULIQv-10">
          <mxGeometry x="-170" y="1069" width="140" height="80" as="geometry" />
        </mxCell>
        <mxCell id="sg5ZIZvMc2TJiHGULIQv-67" style="edgeStyle=orthogonalEdgeStyle;rounded=0;orthogonalLoop=1;jettySize=auto;html=1;exitX=0;exitY=0.5;exitDx=0;exitDy=0;" edge="1" parent="sg5ZIZvMc2TJiHGULIQv-10" source="sg5ZIZvMc2TJiHGULIQv-65" target="sg5ZIZvMc2TJiHGULIQv-64">
          <mxGeometry relative="1" as="geometry" />
        </mxCell>
        <mxCell id="sg5ZIZvMc2TJiHGULIQv-65" value="DB" style="shape=datastore;whiteSpace=wrap;html=1;" vertex="1" parent="sg5ZIZvMc2TJiHGULIQv-10">
          <mxGeometry x="80" y="1079" width="60" height="60" as="geometry" />
        </mxCell>
        <mxCell id="sg5ZIZvMc2TJiHGULIQv-72" value="&#xa;&#xa;&#xa;&#xa;Finish&#xa;" style="shape=waypoint;sketch=0;size=6;pointerEvents=1;points=[];fillColor=default;resizable=0;rotatable=0;perimeter=centerPerimeter;snapToPoint=1;gradientColor=none;strokeWidth=11;" vertex="1" parent="sg5ZIZvMc2TJiHGULIQv-10">
          <mxGeometry x="90" y="1400" width="40" height="40" as="geometry" />
        </mxCell>
        <mxCell id="sg5ZIZvMc2TJiHGULIQv-16" value="" style="edgeStyle=orthogonalEdgeStyle;rounded=0;orthogonalLoop=1;jettySize=auto;html=1;" edge="1" parent="9X0BEVMstnNwjNBZbNRU-2" source="sg5ZIZvMc2TJiHGULIQv-13" target="sg5ZIZvMc2TJiHGULIQv-15">
          <mxGeometry relative="1" as="geometry" />
        </mxCell>
        <mxCell id="sg5ZIZvMc2TJiHGULIQv-21" value="" style="edgeStyle=orthogonalEdgeStyle;rounded=0;orthogonalLoop=1;jettySize=auto;html=1;" edge="1" parent="9X0BEVMstnNwjNBZbNRU-2" source="sg5ZIZvMc2TJiHGULIQv-15" target="sg5ZIZvMc2TJiHGULIQv-20">
          <mxGeometry relative="1" as="geometry" />
        </mxCell>
        <mxCell id="sg5ZIZvMc2TJiHGULIQv-27" value="" style="edgeStyle=orthogonalEdgeStyle;rounded=0;orthogonalLoop=1;jettySize=auto;html=1;" edge="1" parent="9X0BEVMstnNwjNBZbNRU-2" source="sg5ZIZvMc2TJiHGULIQv-22" target="sg5ZIZvMc2TJiHGULIQv-26">
          <mxGeometry relative="1" as="geometry">
            <Array as="points">
              <mxPoint x="300" y="385" />
            </Array>
          </mxGeometry>
        </mxCell>
        <mxCell id="sg5ZIZvMc2TJiHGULIQv-36" style="edgeStyle=orthogonalEdgeStyle;rounded=0;orthogonalLoop=1;jettySize=auto;html=1;" edge="1" parent="9X0BEVMstnNwjNBZbNRU-2" source="sg5ZIZvMc2TJiHGULIQv-34" target="sg5ZIZvMc2TJiHGULIQv-22">
          <mxGeometry relative="1" as="geometry" />
        </mxCell>
        <mxCell id="sg5ZIZvMc2TJiHGULIQv-40" value="" style="edgeStyle=orthogonalEdgeStyle;rounded=0;orthogonalLoop=1;jettySize=auto;html=1;" edge="1" parent="9X0BEVMstnNwjNBZbNRU-2" source="sg5ZIZvMc2TJiHGULIQv-28" target="sg5ZIZvMc2TJiHGULIQv-39">
          <mxGeometry relative="1" as="geometry" />
        </mxCell>
        <mxCell id="sg5ZIZvMc2TJiHGULIQv-43" value="" style="edgeStyle=orthogonalEdgeStyle;rounded=0;orthogonalLoop=1;jettySize=auto;html=1;" edge="1" parent="9X0BEVMstnNwjNBZbNRU-2" source="sg5ZIZvMc2TJiHGULIQv-32" target="sg5ZIZvMc2TJiHGULIQv-42">
          <mxGeometry relative="1" as="geometry" />
        </mxCell>
        <mxCell id="sg5ZIZvMc2TJiHGULIQv-51" value="" style="edgeStyle=orthogonalEdgeStyle;rounded=0;orthogonalLoop=1;jettySize=auto;html=1;" edge="1" parent="9X0BEVMstnNwjNBZbNRU-2" source="sg5ZIZvMc2TJiHGULIQv-48" target="sg5ZIZvMc2TJiHGULIQv-50">
          <mxGeometry relative="1" as="geometry" />
        </mxCell>
        <mxCell id="sg5ZIZvMc2TJiHGULIQv-56" style="edgeStyle=orthogonalEdgeStyle;rounded=0;orthogonalLoop=1;jettySize=auto;html=1;exitX=0;exitY=0.5;exitDx=0;exitDy=0;entryX=1;entryY=0.5;entryDx=0;entryDy=0;" edge="1" parent="9X0BEVMstnNwjNBZbNRU-2" source="sg5ZIZvMc2TJiHGULIQv-54" target="sg5ZIZvMc2TJiHGULIQv-30">
          <mxGeometry relative="1" as="geometry" />
        </mxCell>
        <mxCell id="sg5ZIZvMc2TJiHGULIQv-59" style="edgeStyle=orthogonalEdgeStyle;rounded=0;orthogonalLoop=1;jettySize=auto;html=1;exitX=0;exitY=0.5;exitDx=0;exitDy=0;" edge="1" parent="9X0BEVMstnNwjNBZbNRU-2" source="sg5ZIZvMc2TJiHGULIQv-57" target="sg5ZIZvMc2TJiHGULIQv-44">
          <mxGeometry relative="1" as="geometry" />
        </mxCell>
        <mxCell id="sg5ZIZvMc2TJiHGULIQv-63" value="" style="edgeStyle=orthogonalEdgeStyle;rounded=0;orthogonalLoop=1;jettySize=auto;html=1;" edge="1" parent="9X0BEVMstnNwjNBZbNRU-2" source="sg5ZIZvMc2TJiHGULIQv-60" target="sg5ZIZvMc2TJiHGULIQv-62">
          <mxGeometry relative="1" as="geometry" />
        </mxCell>
        <mxCell id="sg5ZIZvMc2TJiHGULIQv-68" value="Y" style="edgeStyle=orthogonalEdgeStyle;rounded=0;orthogonalLoop=1;jettySize=auto;html=1;exitX=0.5;exitY=1;exitDx=0;exitDy=0;entryX=0.5;entryY=0;entryDx=0;entryDy=0;" edge="1" parent="9X0BEVMstnNwjNBZbNRU-2" source="sg5ZIZvMc2TJiHGULIQv-64" target="sg5ZIZvMc2TJiHGULIQv-48">
          <mxGeometry relative="1" as="geometry" />
        </mxCell>
        <mxCell id="sg5ZIZvMc2TJiHGULIQv-76" style="edgeStyle=orthogonalEdgeStyle;rounded=0;orthogonalLoop=1;jettySize=auto;html=1;exitX=0.5;exitY=1;exitDx=0;exitDy=0;" edge="1" parent="9X0BEVMstnNwjNBZbNRU-2" source="sg5ZIZvMc2TJiHGULIQv-69" target="sg5ZIZvMc2TJiHGULIQv-72">
          <mxGeometry relative="1" as="geometry">
            <mxPoint x="660" y="1440" as="targetPoint" />
            <Array as="points">
              <mxPoint x="300" y="1440" />
            </Array>
          </mxGeometry>
        </mxCell>
        <mxCell id="sg5ZIZvMc2TJiHGULIQv-75" style="edgeStyle=orthogonalEdgeStyle;rounded=0;orthogonalLoop=1;jettySize=auto;html=1;exitX=0.5;exitY=1;exitDx=0;exitDy=0;" edge="1" parent="1" source="sg5ZIZvMc2TJiHGULIQv-71">
          <mxGeometry relative="1" as="geometry">
            <mxPoint x="700" y="1440" as="targetPoint" />
            <Array as="points">
              <mxPoint x="100" y="1440" />
            </Array>
          </mxGeometry>
        </mxCell>
      </root>
    </mxGraphModel>
  </diagram>
</mxfile>
